<svg xmlns="http://www.w3.org/2000/svg" viewBox="0 0 1024 1024"><rect width="1024" height="1024" fill="none"/><g fill="none" stroke="#005846" stroke-width="34"><rect x="160" y="175" width="704" height="650" rx="64"/></g><path fill="#15ae91" d="M224 175h576a64 64 0 0 1 64 64v116H160V239a64 64 0 0 1 64-64Z"/><g fill="#f5faf8" stroke="#005846" stroke-width="20"><rect x="315" y="95" width="76" height="160" rx="38"/><rect x="710" y="95" width="76" height="160" rx="38"/></g><g fill="#005846"><rect x="270" y="440" width="78" height="78" rx="18"/><rect x="540" y="440" width="78" height="78" rx="18"/><rect x="405" y="575" width="78" height="78" rx="18"/><rect x="270" y="710" width="78" height="78" rx="18"/><rect x="675" y="710" width="78" height="78" rx="18"/></g><g fill="#148469"><rect x="405" y="440" width="78" height="78" rx="18"/><rect x="270" y="575" width="78" height="78" rx="18"/><rect x="675" y="575" width="78" height="78" rx="18"/><rect x="540" y="710" width="78" height="78" rx="18"/></g><g fill="#15ae91"><rect x="675" y="440" width="78" height="78" rx="18"/><rect x="540" y="575" width="78" height="78" rx="18"/></g><rect x="405" y="710" width="78" height="78" rx="18" fill="#f7b023"/><path d="m692 727 33 33 65-70" fill="none" stroke="#15ae91" stroke-width="28" stroke-linecap="round" stroke-linejoin="round"/></svg>